# xmcd
# 
# Track frame offsets:
#     150
#     26286
#     42659
#     54842
#     98051
#     133109
#     156653
#     183109
#     211201
#     246095
#     272398
#     298697
# 
# Disc length: 4339
# 
# Revision: 1
# Processed by: cddbd v1.5.2PL0 Copyright (c) Steve Scherf et al.
# Submitted via: BonkEnc v1.0.8
# 
DISCID=a510f10c
DTITLE=Tubby Hayes - The Eighth Wonder
DYEAR=1959
DGENRE=Jazz
TTITLE0=Blues for those who thus desire
TTITLE1=Time was
TTITLE2=The eighth wonder
TTITLE3=Tin tin deo
TTITLE4=Tin tin deo(alt)
TTITLE5=Embers
TTITLE6=Like someone in love
TTITLE7=The surrey with the fringe top
TTITLE8=Sunny monday
TTITLE9=Blue hayes
TTITLE10=Unidentified 12-Bar thme
TTITLE11=Unidentified 32-Bar thme
EXTD=YEAR: 1959
EXTT0=
EXTT1=
EXTT2=
EXTT3=
EXTT4=
EXTT5=
EXTT6=
EXTT7=
EXTT8=
EXTT9=
EXTT10=
EXTT11=
PLAYORDER=
